# xmcd
#
# Track frame offsets:
#	150
#	23923
#	48472
#	64340
#	78626
#	97786
#	118359
#	136967
#	154865
#	195164
#
# Disc length: 2923 seconds
#
# Revision: 2
# Processed by: cddbd v1.5.2PL0 Copyright (c) Steve Scherf et al.
# Submitted via: dBpowerAMP V4.0
#
DISCID=820b690a
DTITLE=Mac Arnold and Plate Full O' Blues - Nothin' To Prove
DYEAR=2005
DGENRE=Blues
TTITLE0=Blues For You
TTITLE1=Nothin To Prove
TTITLE2=Call Mac Arnold
TTITLE3=I Don't Know
TTITLE4=(Get On) Back To The Country
TTITLE5=Ghetto Blue
TTITLE6=Going Back Home
TTITLE7=The Truth
TTITLE8=She's So Mean To Me
TTITLE9=(Get On) Back To The Country Part 2 "Live"
EXTD=
EXTT0=
EXTT1=
EXTT2=
EXTT3=
EXTT4=
EXTT5=
EXTT6=
EXTT7=
EXTT8=
EXTT9=
PLAYORDER=
